<svg width="120" height="120" viewBox="0 0 120 120" fill="none" xmlns="http://www.w3.org/2000/svg">
<path d="M98 82.2324L96.4062 83.0791L61.4062 101.65L60 102.396L58.5938 101.65L28.8428 85.8643L34.9746 82.3232L60 95.6025L92 78.623V49.083L98 45.6182V82.2324ZM61.4062 18.3496L92.5801 34.8906L86.4492 38.4307L60 24.3965L28 41.376V72.4941L22 75.958V37.7676L23.5938 36.9209L58.5938 18.3496L60 17.6035L61.4062 18.3496ZM60 50C65.5228 50 70 54.4772 70 60C70 65.5228 65.5228 70 60 70C54.4773 69.9998 50 65.5227 50 60C50 54.4773 54.4773 50.0002 60 50Z" fill="#FF69B4"/>
<path d="M47.7881 64.4671C48.4926 66.3926 49.6412 68.1028 51.1074 69.4789L9.83008 93.2445L6.82422 88.0521L47.7881 64.4671ZM112.453 28.2552L115.344 29.0355L114.575 31.9203L111.444 43.6888L108.541 42.9164L105.639 42.1439L106.914 37.35L72.667 57.0668C72.2026 55.0531 71.2697 53.2193 69.9902 51.6839L103.909 32.1566L99.1064 30.8607L100.668 25.0755L112.453 28.2552Z" fill="#FF69B4"/>
</svg>
